<mxfile host="app.diagrams.net" modified="2022-12-06T15:37:58.499Z" agent="5.0 (Windows NT 10.0; Win64; x64) AppleWebKit/537.36 (KHTML, like Gecko) Chrome/107.0.0.0 Safari/537.36 Edg/107.0.1418.62" version="20.6.0" etag="oeV1D4kmFPPMDBU2CvDb" type="github">
  <diagram id="vxL1t2ihZjcQ1OkBsNJV" name="第 1 页">
    <mxGraphModel dx="1020" dy="869" grid="1" gridSize="10" guides="1" tooltips="1" connect="1" arrows="1" fold="1" page="1" pageScale="1" pageWidth="827" pageHeight="1169" math="0" shadow="0">
      <root>
        <mxCell id="0" />
        <mxCell id="1" parent="0" />
        <mxCell id="6u0Ix8fESsCGFN_RYfSn-7" style="edgeStyle=orthogonalEdgeStyle;curved=1;rounded=0;orthogonalLoop=1;jettySize=auto;html=1;exitX=0.5;exitY=1;exitDx=0;exitDy=0;" edge="1" parent="1" source="6u0Ix8fESsCGFN_RYfSn-1" target="6u0Ix8fESsCGFN_RYfSn-3">
          <mxGeometry relative="1" as="geometry" />
        </mxCell>
        <mxCell id="6u0Ix8fESsCGFN_RYfSn-8" value="充值信息" style="edgeLabel;html=1;align=center;verticalAlign=middle;resizable=0;points=[];" vertex="1" connectable="0" parent="6u0Ix8fESsCGFN_RYfSn-7">
          <mxGeometry x="-0.2" y="6" relative="1" as="geometry">
            <mxPoint as="offset" />
          </mxGeometry>
        </mxCell>
        <mxCell id="6u0Ix8fESsCGFN_RYfSn-1" value="学生/教职工" style="rounded=0;whiteSpace=wrap;html=1;" vertex="1" parent="1">
          <mxGeometry x="180" y="60" width="120" height="60" as="geometry" />
        </mxCell>
        <mxCell id="6u0Ix8fESsCGFN_RYfSn-21" style="edgeStyle=orthogonalEdgeStyle;curved=1;rounded=0;orthogonalLoop=1;jettySize=auto;html=1;exitX=1;exitY=0.5;exitDx=0;exitDy=0;entryX=-0.025;entryY=0.613;entryDx=0;entryDy=0;entryPerimeter=0;" edge="1" parent="1" source="6u0Ix8fESsCGFN_RYfSn-2" target="6u0Ix8fESsCGFN_RYfSn-5">
          <mxGeometry relative="1" as="geometry" />
        </mxCell>
        <mxCell id="6u0Ix8fESsCGFN_RYfSn-24" value="卡信息" style="edgeLabel;html=1;align=center;verticalAlign=middle;resizable=0;points=[];" vertex="1" connectable="0" parent="6u0Ix8fESsCGFN_RYfSn-21">
          <mxGeometry x="-0.1138" y="-6" relative="1" as="geometry">
            <mxPoint as="offset" />
          </mxGeometry>
        </mxCell>
        <mxCell id="6u0Ix8fESsCGFN_RYfSn-2" value="刷卡机" style="rounded=0;whiteSpace=wrap;html=1;" vertex="1" parent="1">
          <mxGeometry x="150" y="420" width="120" height="60" as="geometry" />
        </mxCell>
        <mxCell id="6u0Ix8fESsCGFN_RYfSn-12" style="edgeStyle=orthogonalEdgeStyle;curved=1;rounded=0;orthogonalLoop=1;jettySize=auto;html=1;exitX=1;exitY=0.5;exitDx=0;exitDy=0;entryX=0;entryY=0.5;entryDx=0;entryDy=0;" edge="1" parent="1" source="6u0Ix8fESsCGFN_RYfSn-3" target="6u0Ix8fESsCGFN_RYfSn-10">
          <mxGeometry relative="1" as="geometry" />
        </mxCell>
        <mxCell id="6u0Ix8fESsCGFN_RYfSn-15" value="卡信息" style="edgeLabel;html=1;align=center;verticalAlign=middle;resizable=0;points=[];" vertex="1" connectable="0" parent="6u0Ix8fESsCGFN_RYfSn-12">
          <mxGeometry x="-0.2267" y="-3" relative="1" as="geometry">
            <mxPoint as="offset" />
          </mxGeometry>
        </mxCell>
        <mxCell id="6u0Ix8fESsCGFN_RYfSn-3" value="5.1.1&lt;br&gt;充值" style="ellipse;whiteSpace=wrap;html=1;aspect=fixed;" vertex="1" parent="1">
          <mxGeometry x="270" y="200" width="80" height="80" as="geometry" />
        </mxCell>
        <mxCell id="6u0Ix8fESsCGFN_RYfSn-20" style="edgeStyle=orthogonalEdgeStyle;curved=1;rounded=0;orthogonalLoop=1;jettySize=auto;html=1;exitX=0;exitY=0.5;exitDx=0;exitDy=0;entryX=0.442;entryY=0.017;entryDx=0;entryDy=0;entryPerimeter=0;" edge="1" parent="1" source="6u0Ix8fESsCGFN_RYfSn-4" target="6u0Ix8fESsCGFN_RYfSn-2">
          <mxGeometry relative="1" as="geometry" />
        </mxCell>
        <mxCell id="6u0Ix8fESsCGFN_RYfSn-23" value="充值金额" style="edgeLabel;html=1;align=center;verticalAlign=middle;resizable=0;points=[];" vertex="1" connectable="0" parent="6u0Ix8fESsCGFN_RYfSn-20">
          <mxGeometry x="-0.1681" y="10" relative="1" as="geometry">
            <mxPoint as="offset" />
          </mxGeometry>
        </mxCell>
        <mxCell id="6u0Ix8fESsCGFN_RYfSn-4" value="5.1.2&lt;br&gt;显示余额" style="ellipse;whiteSpace=wrap;html=1;aspect=fixed;" vertex="1" parent="1">
          <mxGeometry x="370" y="310" width="80" height="80" as="geometry" />
        </mxCell>
        <mxCell id="6u0Ix8fESsCGFN_RYfSn-22" style="edgeStyle=orthogonalEdgeStyle;curved=1;rounded=0;orthogonalLoop=1;jettySize=auto;html=1;exitX=1;exitY=0.5;exitDx=0;exitDy=0;entryX=0.5;entryY=1;entryDx=0;entryDy=0;" edge="1" parent="1" source="6u0Ix8fESsCGFN_RYfSn-5" target="6u0Ix8fESsCGFN_RYfSn-11">
          <mxGeometry relative="1" as="geometry" />
        </mxCell>
        <mxCell id="6u0Ix8fESsCGFN_RYfSn-25" value="充值" style="edgeLabel;html=1;align=center;verticalAlign=middle;resizable=0;points=[];" vertex="1" connectable="0" parent="6u0Ix8fESsCGFN_RYfSn-22">
          <mxGeometry x="-0.1529" y="12" relative="1" as="geometry">
            <mxPoint as="offset" />
          </mxGeometry>
        </mxCell>
        <mxCell id="6u0Ix8fESsCGFN_RYfSn-26" style="edgeStyle=orthogonalEdgeStyle;curved=1;rounded=0;orthogonalLoop=1;jettySize=auto;html=1;exitX=1;exitY=0;exitDx=0;exitDy=0;entryX=0.75;entryY=1;entryDx=0;entryDy=0;" edge="1" parent="1" source="6u0Ix8fESsCGFN_RYfSn-5" target="6u0Ix8fESsCGFN_RYfSn-10">
          <mxGeometry relative="1" as="geometry" />
        </mxCell>
        <mxCell id="6u0Ix8fESsCGFN_RYfSn-27" value="充值金额" style="edgeLabel;html=1;align=center;verticalAlign=middle;resizable=0;points=[];" vertex="1" connectable="0" parent="6u0Ix8fESsCGFN_RYfSn-26">
          <mxGeometry x="0.2703" y="18" relative="1" as="geometry">
            <mxPoint as="offset" />
          </mxGeometry>
        </mxCell>
        <mxCell id="6u0Ix8fESsCGFN_RYfSn-5" value="5.1.3&lt;br&gt;确认卡信息" style="ellipse;whiteSpace=wrap;html=1;aspect=fixed;" vertex="1" parent="1">
          <mxGeometry x="390" y="450" width="80" height="80" as="geometry" />
        </mxCell>
        <mxCell id="6u0Ix8fESsCGFN_RYfSn-13" style="edgeStyle=orthogonalEdgeStyle;curved=1;rounded=0;orthogonalLoop=1;jettySize=auto;html=1;exitX=0.5;exitY=1;exitDx=0;exitDy=0;entryX=1;entryY=0;entryDx=0;entryDy=0;" edge="1" parent="1" source="6u0Ix8fESsCGFN_RYfSn-10" target="6u0Ix8fESsCGFN_RYfSn-4">
          <mxGeometry relative="1" as="geometry" />
        </mxCell>
        <mxCell id="6u0Ix8fESsCGFN_RYfSn-16" value="余额" style="edgeLabel;html=1;align=center;verticalAlign=middle;resizable=0;points=[];" vertex="1" connectable="0" parent="6u0Ix8fESsCGFN_RYfSn-13">
          <mxGeometry x="-0.1812" y="5" relative="1" as="geometry">
            <mxPoint as="offset" />
          </mxGeometry>
        </mxCell>
        <mxCell id="6u0Ix8fESsCGFN_RYfSn-29" style="edgeStyle=orthogonalEdgeStyle;curved=1;rounded=0;orthogonalLoop=1;jettySize=auto;html=1;exitX=0.5;exitY=0;exitDx=0;exitDy=0;entryX=1;entryY=0;entryDx=0;entryDy=0;" edge="1" parent="1" source="6u0Ix8fESsCGFN_RYfSn-10" target="6u0Ix8fESsCGFN_RYfSn-3">
          <mxGeometry relative="1" as="geometry" />
        </mxCell>
        <mxCell id="6u0Ix8fESsCGFN_RYfSn-30" value="充值信息" style="edgeLabel;html=1;align=center;verticalAlign=middle;resizable=0;points=[];" vertex="1" connectable="0" parent="6u0Ix8fESsCGFN_RYfSn-29">
          <mxGeometry x="-0.0965" relative="1" as="geometry">
            <mxPoint as="offset" />
          </mxGeometry>
        </mxCell>
        <mxCell id="6u0Ix8fESsCGFN_RYfSn-10" value="饭卡信息数据" style="shape=partialRectangle;whiteSpace=wrap;html=1;left=0;right=0;fillColor=none;" vertex="1" parent="1">
          <mxGeometry x="490" y="200" width="120" height="60" as="geometry" />
        </mxCell>
        <mxCell id="6u0Ix8fESsCGFN_RYfSn-28" style="edgeStyle=orthogonalEdgeStyle;curved=1;rounded=0;orthogonalLoop=1;jettySize=auto;html=1;exitX=0.75;exitY=0;exitDx=0;exitDy=0;entryX=1;entryY=0;entryDx=0;entryDy=0;" edge="1" parent="1" source="6u0Ix8fESsCGFN_RYfSn-11" target="6u0Ix8fESsCGFN_RYfSn-3">
          <mxGeometry relative="1" as="geometry">
            <Array as="points">
              <mxPoint x="720" y="80" />
              <mxPoint x="338" y="80" />
            </Array>
          </mxGeometry>
        </mxCell>
        <mxCell id="6u0Ix8fESsCGFN_RYfSn-31" value="操作信息" style="edgeLabel;html=1;align=center;verticalAlign=middle;resizable=0;points=[];" vertex="1" connectable="0" parent="6u0Ix8fESsCGFN_RYfSn-28">
          <mxGeometry x="0.1577" y="6" relative="1" as="geometry">
            <mxPoint as="offset" />
          </mxGeometry>
        </mxCell>
        <mxCell id="6u0Ix8fESsCGFN_RYfSn-11" value="饭卡历史信息数据" style="shape=partialRectangle;whiteSpace=wrap;html=1;left=0;right=0;fillColor=none;" vertex="1" parent="1">
          <mxGeometry x="630" y="420" width="120" height="60" as="geometry" />
        </mxCell>
      </root>
    </mxGraphModel>
  </diagram>
</mxfile>
